<svg xmlns="http://www.w3.org/2000/svg" width="145" height="23.688" viewBox="0 0 145 23.688">
  <defs>
    <style>
      .cls-1 {
        fill: #60d8cc;
        fill-rule: evenodd;
      }
    </style>
  </defs>
  <path id="new_vector_shape_done.svg" class="cls-1" d="M50,29h8c0.871,2.561.539,7.124,0.5,10.5H60c0.926-1.335,11.055-9.713,12.5-10.5H83v1c-2.382.739-11.532,7.117-12,9.5C73.274,40.269,84.24,49.855,85,52H75c-1.052-2.334-8.278-8.821-11.5-9-2.541,3.1-5.087,2.311-5,8.5H58c-1.49.98-5.639,0.565-8,.5V29Zm75,23h-8.5c-0.761-.38-0.953-2.122-2-2.5h-17c-1.073.376-1.291,2.074-2,2.5h-9V51c2.672-2.625,4.266-5.9,6.5-9,1.976-2.746,5.018-5.258,7-8,0.962-1.331,1.674-4.163,3-5h6C111.441,36.646,123.46,44.371,125,52Zm11-23c8.689-.28,19.385-0.191,21.5,6,0.126,0.484.392,0.19,0,.5-4.3,2.754-9.836-1.323-12.5-2l-8,.5a4.759,4.759,0,0,1-2,1.5,34.371,34.371,0,0,0,0,10c3.519,2.057,7.385,1.789,12.5,1.5,0.642-.917.984-0.856,1.5-2a2.547,2.547,0,0,0,.5-1.5h-1c-0.782-.362-3.641.362-5-0.5-0.525-.775-0.515-2.043-0.5-3.5,3.734-1.258,10.371-.541,15-0.5a20.531,20.531,0,0,1,.5,6,2.547,2.547,0,0,0-.5,1.5c-2.8,2.126-5.592,4.352-9.5,5.5-7.393,2.171-20.922-1.95-22.5-5.5V35l4-4C131.932,29.976,134.479,30.342,136,29Zm59,0V46l-4,4c-5.85,3.066-20.26,3.051-25.5-.5l-3-3.5c-0.141-4.429-.684-12.774,0-17h8c1.388,4.129.541,11.45,0.5,16.5h0.5c3.2,3.329,8.225,1.973,13,1.5,2.714-4.157,2.09-10.59,2-17.5C188.553,28.8,192.172,28.963,195,29ZM111.5,45.5V44c-2.1-1.478-3.825-4.638-5-7h-1c-1.693,2.87-4.386,5.137-5.5,8.5h11.5Z" transform="translate(-50 -28.906)"/>
</svg>
