<svg xmlns="http://www.w3.org/2000/svg" width="109" height="17.4" viewBox="0 0 109 17.4">
  <defs>
    <style>
      .cls-1 {
        fill: #60d8cc;
        fill-rule: evenodd;
      }
    </style>
  </defs>
  <path id="new_vector_shape_don2e.svg" class="cls-1" d="M1832,1937h6c0.62,1.8.54,4.94,0.5,7.5h1.5c3.26-4.75,8.14-7.62,16.5-7.5v1c-2.72.77-7.93,4.03-8.5,7,1.96,0.65,9.32,7.13,10,9h-7c-2.08-2.67-5.59-4.18-7.5-7-2.79,1.24-5.05,2.22-5,6.5H1838c-1.16.77-4.05,0.56-6,.5v-17Zm40,0h4c3.58,5.56,10.24,10.57,12.5,17H1882c-2.9-3.9-17.74-.11-22.5,0v-1C1862.65,1950.75,1869.65,1940.6,1872,1937Zm41,5c-7.21-.03-10.03-2.34-16-1-1.25,2-1.58,3.78-1.5,7.5a5.694,5.694,0,0,1,1,1.5c4.01,0.63,6.42,1,10-.5,0.17-.5.33-1,0.5-1.5l-0.5-.5H1902v-3h11.5a27.9,27.9,0,0,1-.5,6c-6.62,4.25-11.39,3.33-20.5,2.5-1.11-1.41-2.3-1.55-3-3.5-0.98-1.49-.56-5.64-0.5-8,1.36-1.11,2.25-2.76,4-3.5C1899.01,1935.46,1911.64,1936.54,1913,1942Zm3.5-5h6c1,2.95.54,8.21,0.5,12,10.43,6.58,11.96-.6,11.5-11.5,1.56-.54,4.21-0.53,6.5-0.5v13c-7.26,4.89-12.03,4.91-22,2.5-0.83-1-1.67-2-2.5-3V1937Zm-43,6a16.72,16.72,0,0,1-3.5,5,1.737,1.737,0,0,0,.5,1c1.32,0.87,4.85.56,7,.5a6.961,6.961,0,0,0,.5-2C1876.19,1946.18,1875.72,1943.9,1873.5,1943Z" transform="translate(-1832 -1936.69)"/>
</svg>
